<?xml version="1.0" standalone="no"?>
<!DOCTYPE svg PUBLIC "-//W3C//DTD SVG 20010904//EN"
 "http://www.w3.org/TR/2001/REC-SVG-20010904/DTD/svg10.dtd">
<svg version="1.0" xmlns="http://www.w3.org/2000/svg"
 width="128.000000pt" height="128.000000pt" viewBox="0 0 128.000000 128.000000"
 preserveAspectRatio="xMidYMid meet">
<metadata>
Created by potrace 1.11, written by Peter Selinger 2001-2013
</metadata>
<g transform="translate(0.000000,128.000000) scale(0.100000,-0.100000)"
fill="#000000" stroke="none">
<path d="M397 1192 c-19 -21 -98 -111 -176 -202 -78 -91 -158 -181 -177 -201
-35 -36 -35 -49 -2 -49 16 0 18 -10 18 -99 0 -87 -3 -104 -26 -145 -27 -49
-25 -66 8 -66 21 0 21 -2 15 -177 -3 -107 -2 -171 4 -162 5 8 9 9 9 3 0 -6 40
-10 113 -9 61 1 123 -3 137 -9 31 -12 489 -16 496 -4 3 4 10 6 15 3 5 -4 9 -1
9 4 0 6 -4 11 -10 11 -11 0 -14 30 -2 31 4 0 97 2 207 4 110 2 205 5 211 6 7
2 8 18 3 48 -12 69 -10 186 2 198 7 7 -2 42 -34 119 l-44 109 -182 3 -181 2 0
90 0 90 31 0 c30 0 30 1 -60 103 -187 213 -187 213 -204 199 -13 -11 -24 -2
-80 62 l-65 74 -35 -36z"/>
</g>
</svg>
